<svg preserveAspectRatio="none" width="100%" height="100%" overflow="visible" style="display: block;" viewBox="0 0 27 24.0058" fill="none" xmlns="http://www.w3.org/2000/svg">
<path id="Icon" d="M13.5 24.0058L12.3635 22.9789C9.91539 20.7423 7.89039 18.8279 6.28846 17.2356C4.68654 15.6433 3.42212 14.239 2.49519 13.0226C1.56827 11.8063 0.920673 10.7058 0.552404 9.72117C0.184135 8.73655 0 7.74616 0 6.75001C0 4.84231 0.648078 3.24039 1.94423 1.94423C3.24039 0.648077 4.84231 0 6.75001 0C8.06924 0 9.30674 0.3375 10.4625 1.0125C11.6183 1.6875 12.6308 2.66923 13.5 3.95769C14.3692 2.66923 15.3817 1.6875 16.5375 1.0125C17.6933 0.3375 18.9308 0 20.25 0C22.1577 0 23.7596 0.648077 25.0558 1.94423C26.3519 3.24039 27 4.84231 27 6.75001C27 7.74616 26.8159 8.73655 26.4476 9.72117C26.0793 10.7058 25.4317 11.8063 24.5048 13.0226C23.5779 14.239 22.3183 15.6433 20.726 17.2356C19.1337 18.8279 17.1039 20.7423 14.6366 22.9789L13.5 24.0058V24.0058M13.5 21.975C15.9 19.8058 17.875 17.9476 19.425 16.4005C20.975 14.8534 22.2 13.5111 23.1 12.3736C24 11.2361 24.625 10.2284 24.975 9.35049C25.325 8.47261 25.5 7.60578 25.5 6.75001C25.5 5.25001 25 4.00001 24 3.00001C23 2.00001 21.75 1.50001 20.25 1.50001C19.0558 1.50001 17.9539 1.84087 16.9442 2.52261C15.9346 3.20434 15.0308 4.23078 14.2327 5.60193V5.60193H12.7673V5.60193C11.95 4.21155 11.0414 3.1803 10.0414 2.50818C9.04136 1.83607 7.94424 1.50001 6.75001 1.50001C5.26924 1.50001 4.02405 2.00001 3.01443 3.00001C2.00482 4.00001 1.50001 5.25001 1.50001 6.75001C1.50001 7.60578 1.67501 8.47261 2.02501 9.35049C2.37501 10.2284 3.00001 11.2361 3.90001 12.3736C4.80001 13.5111 6.02501 14.8486 7.57501 16.3861C9.12501 17.9236 11.1 19.7865 13.5 21.975V21.975M13.5 11.7375V11.7375V11.7375V11.7375V11.7375V11.7375V11.7375V11.7375V11.7375V11.7375V11.7375V11.7375V11.7375V11.7375V11.7375V11.7375V11.7375V11.7375V11.7375V11.7375V11.7375" fill="var(--fill-0, #C9A84C)"/>
</svg>
